<mxfile host="app.diagrams.net" modified="2020-12-31T10:02:04.418Z" agent="5.0 (Windows NT 10.0; Win64; x64) AppleWebKit/537.36 (KHTML, like Gecko) Chrome/88.0.4302.0 Safari/537.36" etag="dIQLLzW5qIEm40WGjyng" version="14.1.4" type="github">
  <diagram id="JzjrRkpdsAUtmk61N8On" name="第 1 页">
    <mxGraphModel dx="782" dy="446" grid="1" gridSize="10" guides="1" tooltips="1" connect="1" arrows="1" fold="1" page="1" pageScale="1" pageWidth="827" pageHeight="1169" math="0" shadow="0">
      <root>
        <mxCell id="0" />
        <mxCell id="1" parent="0" />
        <mxCell id="w-EE96jTvqOOXP6kagBp-1" value="&lt;font style=&quot;font-size: 18px&quot;&gt;server&lt;/font&gt;" style="rounded=0;whiteSpace=wrap;html=1;" vertex="1" parent="1">
          <mxGeometry x="380" y="360" width="120" height="60" as="geometry" />
        </mxCell>
        <mxCell id="w-EE96jTvqOOXP6kagBp-2" value="&lt;font style=&quot;font-size: 18px&quot;&gt;client&lt;/font&gt;" style="rounded=0;whiteSpace=wrap;html=1;" vertex="1" parent="1">
          <mxGeometry x="60" y="360" width="120" height="60" as="geometry" />
        </mxCell>
        <mxCell id="w-EE96jTvqOOXP6kagBp-3" value="" style="endArrow=none;html=1;" edge="1" parent="1">
          <mxGeometry width="50" height="50" relative="1" as="geometry">
            <mxPoint x="440" y="360" as="sourcePoint" />
            <mxPoint x="440" y="40" as="targetPoint" />
          </mxGeometry>
        </mxCell>
        <mxCell id="w-EE96jTvqOOXP6kagBp-4" value="" style="endArrow=none;html=1;" edge="1" parent="1">
          <mxGeometry width="50" height="50" relative="1" as="geometry">
            <mxPoint x="120" y="360" as="sourcePoint" />
            <mxPoint x="120" y="40" as="targetPoint" />
          </mxGeometry>
        </mxCell>
        <mxCell id="w-EE96jTvqOOXP6kagBp-5" value="&lt;p style=&quot;margin-top: 0pt ; margin-bottom: 0pt ; margin-left: 0in ; text-align: left ; direction: ltr ; unicode-bidi: embed ; word-break: normal ; font-size: 16px&quot;&gt;&lt;span&gt;协商建立安全连接：&lt;/span&gt;&lt;span style=&quot;color: rgb(87 , 171 , 248) ; font-weight: bold&quot;&gt;协议&lt;/span&gt;&lt;span style=&quot;font-size: 16px ; color: rgb(87 , 171 , 248) ; font-weight: bold&quot;&gt;版本，&lt;/span&gt;&lt;span style=&quot;color: rgb(87 , 171 , 248) ; font-weight: bold&quot;&gt;会话标志，&lt;/span&gt;&lt;/p&gt;&lt;p style=&quot;margin-top: 0pt ; margin-bottom: 0pt ; margin-left: 0in ; text-align: left ; direction: ltr ; unicode-bidi: embed ; word-break: normal ; font-size: 16px&quot;&gt;&lt;span style=&quot;color: rgb(87 , 171 , 248) ; font-weight: bold&quot;&gt;密码套件，压缩方法和初始随机数&lt;/span&gt;&lt;/p&gt;" style="text;html=1;align=center;verticalAlign=middle;resizable=0;points=[];autosize=1;" vertex="1" parent="1">
          <mxGeometry x="120" y="40" width="320" height="30" as="geometry" />
        </mxCell>
        <mxCell id="w-EE96jTvqOOXP6kagBp-6" value="" style="endArrow=classic;startArrow=classic;html=1;" edge="1" parent="1">
          <mxGeometry width="50" height="50" relative="1" as="geometry">
            <mxPoint x="120" y="80" as="sourcePoint" />
            <mxPoint x="440" y="80" as="targetPoint" />
          </mxGeometry>
        </mxCell>
        <mxCell id="w-EE96jTvqOOXP6kagBp-7" value="" style="endArrow=classic;startArrow=classic;html=1;" edge="1" parent="1">
          <mxGeometry width="50" height="50" relative="1" as="geometry">
            <mxPoint x="120" y="160" as="sourcePoint" />
            <mxPoint x="440" y="160" as="targetPoint" />
          </mxGeometry>
        </mxCell>
        <mxCell id="w-EE96jTvqOOXP6kagBp-8" value="&lt;div style=&quot;font-size: 16px&quot;&gt;&lt;font style=&quot;font-size: 16px&quot;&gt;服务器发送证书，密钥交换，（请求证书）&lt;/font&gt;&lt;/div&gt;&lt;div style=&quot;font-size: 16px&quot;&gt;&lt;font style=&quot;font-size: 16px&quot;&gt;。&lt;/font&gt;&lt;span&gt;用户对服务端的信息进行验证&lt;/span&gt;&lt;/div&gt;&lt;div style=&quot;font-size: 16px&quot;&gt;&lt;br&gt;&lt;/div&gt;" style="text;html=1;align=center;verticalAlign=middle;resizable=0;points=[];autosize=1;" vertex="1" parent="1">
          <mxGeometry x="120" y="120" width="320" height="50" as="geometry" />
        </mxCell>
        <mxCell id="w-EE96jTvqOOXP6kagBp-9" value="" style="endArrow=classic;html=1;" edge="1" parent="1">
          <mxGeometry width="50" height="50" relative="1" as="geometry">
            <mxPoint x="120" y="240" as="sourcePoint" />
            <mxPoint x="440" y="240" as="targetPoint" />
          </mxGeometry>
        </mxCell>
        <mxCell id="w-EE96jTvqOOXP6kagBp-10" value="&lt;div style=&quot;font-size: 16px&quot;&gt;&lt;font style=&quot;font-size: 16px&quot;&gt;验证证书有效性后，用户进行密钥交换&lt;/font&gt;&lt;/div&gt;&lt;div style=&quot;font-size: 16px&quot;&gt;&lt;font style=&quot;font-size: 16px&quot;&gt;，服务端公钥加密要交换的会话密钥&lt;/font&gt;&lt;/div&gt;&lt;div&gt;&lt;br&gt;&lt;/div&gt;" style="text;html=1;align=center;verticalAlign=middle;resizable=0;points=[];autosize=1;" vertex="1" parent="1">
          <mxGeometry x="135" y="200" width="290" height="50" as="geometry" />
        </mxCell>
        <mxCell id="w-EE96jTvqOOXP6kagBp-11" value="" style="endArrow=classic;html=1;" edge="1" parent="1">
          <mxGeometry width="50" height="50" relative="1" as="geometry">
            <mxPoint x="440" y="320" as="sourcePoint" />
            <mxPoint x="120" y="320" as="targetPoint" />
          </mxGeometry>
        </mxCell>
        <mxCell id="w-EE96jTvqOOXP6kagBp-12" value="&lt;div style=&quot;font-size: 16px&quot;&gt;&lt;font style=&quot;font-size: 16px&quot;&gt;双方都计算出会话密钥后，生成随机数挑战&lt;/font&gt;&lt;/div&gt;&lt;div style=&quot;font-size: 16px&quot;&gt;&lt;font style=&quot;font-size: 16px&quot;&gt;，将随机数用会话密钥加密发送给对方&lt;/font&gt;&lt;/div&gt;&lt;div&gt;&lt;br&gt;&lt;/div&gt;" style="text;html=1;align=center;verticalAlign=middle;resizable=0;points=[];autosize=1;" vertex="1" parent="1">
          <mxGeometry x="120" y="280" width="320" height="50" as="geometry" />
        </mxCell>
      </root>
    </mxGraphModel>
  </diagram>
</mxfile>
